<svg xmlns="http://www.w3.org/2000/svg" width="46" height="53.875" viewBox="0 0 46 53.875">
  <defs>
    <style>
      .cls-1 {
        fill: #616161;
        fill-rule: evenodd;
      }
    </style>
  </defs>
  <path id="Android_2" data-name="Android 2" class="cls-1" d="M348.942,641.9a3,3,0,0,0,6,0l0-5.009c0.688,0.034,1.935.051,1.935,0.051s1.825,0.019,4.056-.151l0.007,5.109a3,3,0,0,0,6,0l-0.065-5.78c3.184-.829,6-2.263,6-4.741V612.942a2.013,2.013,0,0,0-2-2l-25.938-.062a2.07,2.07,0,0,0-2,2v18.437s0.272,3.262,5.97,4.95Zm9-49.02a12.24,12.24,0,0,1,6.468,1.638c0.356,0.2,2.409-3.648,4.388-3.482,0.375,3.8-2.214,4.861-1.863,5.151a16.884,16.884,0,0,1,5.944,12.795H342.942a16.891,16.891,0,0,1,5.52-12.4c0.4-.356-2.329-3.644-1.37-5.531,1.7-.193,3.547,3.9,4.032,3.632A13.88,13.88,0,0,1,357.942,592.88Zm-7,8.062a2,2,0,1,1-2,2A2,2,0,0,1,350.942,600.942Zm14,0a2,2,0,1,1-2,2A2,2,0,0,1,364.942,600.942Zm-27,10a3,3,0,0,1,3,3v14a3,3,0,0,1-6,0v-14A3,3,0,0,1,337.942,610.942Zm40,0a3,3,0,0,1,3,3v14a3,3,0,0,1-6,0v-14A3,3,0,0,1,377.942,610.942Z" transform="translate(-334.938 -591.031)"/>
</svg>
