<svg xmlns="http://www.w3.org/2000/svg" width="60" height="56" viewBox="0 0 60 56">
  <defs>
    <style>
      .cls-1 {
        fill: #616161;
        fill-rule: evenodd;
      }
    </style>
  </defs>
  <path id="Camera_2" data-name="Camera 2" class="cls-1" d="M932,589h10a6,6,0,0,1,6,6v10a6,6,0,0,1-6,6H932a6,6,0,0,1-6-6V595A6,6,0,0,1,932,589Zm4.969,7.875a3.094,3.094,0,1,1-3.094,3.094A3.095,3.095,0,0,1,936.969,596.875ZM916.875,619a10.907,10.907,0,1,1-10.937,10.875A10.885,10.885,0,0,1,916.875,619Zm0.062,1.625a9.063,9.063,0,1,1-9.062,9.063A9.062,9.062,0,0,1,916.937,620.625Zm0,4.313a5,5,0,1,1-5,5A5,5,0,0,1,916.938,624.938ZM900.25,607h23.625c0,6.251,6.125,6,6.125,6l14-.062A4.054,4.054,0,0,1,940,617H919.875c2.25,0,2.162-2.5,2.162-2.5l0.088-3.121a2.522,2.522,0,0,0-2.267-2.4l-7.733-.024a1.893,1.893,0,0,0-2.175,1.885l0.014,4.057A2.235,2.235,0,0,0,912,617H894a4,4,0,0,1-4-4v-2l8.073,0.06S900.275,609.185,900.25,607ZM890,605h6a2,2,0,0,1,0,4h-6A2,2,0,0,1,890,605Zm24,6h4a2,2,0,0,1,2,2,1.947,1.947,0,0,1-2,1.938h-4A1.947,1.947,0,0,1,912,613,2,2,0,0,1,914,611Zm16.125,18.124s0.25-6.874-6-10.125H942a2,2,0,0,1,2,2v22a2,2,0,0,1-2,2H892a2,2,0,0,1-2-2V621a2,2,0,0,1,2-2h18s-6.125,1.625-6.125,10.125S909.438,643,916.063,643,930.125,640.063,930.125,629.125Z" transform="translate(-888 -589)"/>
</svg>
