<svg xmlns="http://www.w3.org/2000/svg" width="54" height="64.062" viewBox="0 0 54 64.062">
  <defs>
    <style>
      .cls-1 {
        fill: #616161;
        fill-rule: evenodd;
      }
    </style>
  </defs>
  <path id="Stop_Watch" data-name="Stop Watch" class="cls-1" d="M1223.44,590.91c5.43,0.5,8.16,2.29,11.97,4.434l2.97-2.969-1.46-1.328,1.89-2.062,5.07,4.187-1.94,1.937-1.19-.937-2.69,3.179a27.061,27.061,0,1,1-44.57,20.618c0-14.554,12.55-27.051,24.13-27.051v-6h-1.99s-1.88.062-1.88-1.625a1.99,1.99,0,0,1,2-2.313h9.69s2.12,0.126,2.12,2.063a2.063,2.063,0,0,1-2.12,1.937h-2v5.926Zm-2.86,5.977a21.4,21.4,0,0,1,14.98,6.224c-0.68.447-2.56,2.184-2.56,2.184l1.44,1.743s2.66-2.13,2.82-1.933a21.026,21.026,0,0,1,4.37,11.82c-0.85.057-4.22,0.053-4.22,0.053l0.08,2.02a30.907,30.907,0,0,1,4.15-.016,20.864,20.864,0,0,1-4.27,11.823c-0.18.226-3.07-1.921-3.07-1.921l-1.2,1.692s2.74,2.016,2.41,2.352a21.089,21.089,0,0,1-14.02,6.115,39.924,39.924,0,0,1-.03-4.094l-1.88-.012s-0.1,2.616-.08,4.1a21.206,21.206,0,0,1-11.96-4.421,22.626,22.626,0,0,1-1.95-1.72c-0.23-.231,2.22-2.41,2.22-2.41l-1.5-1.622s-1.7,1.242-2.63,1.846a20.825,20.825,0,0,1-4.23-11.784c0-.112,4.01.046,4.01,0.046l0.04-1.992s-2.31.024-4.04,0.07a23.3,23.3,0,0,1,4.31-12.03c0.13-.168,2.36,2.182,2.36,2.182l1.57-2.13s-1.85-1.485-2.16-1.863A21.145,21.145,0,0,1,1220.58,596.887Zm2.92,23.129a2.986,2.986,0,0,1-3.09,2.969,2.885,2.885,0,0,1-2.97-2.969c0-2.938,2.06-3.094,2.06-3.094V599.985a1,1,0,0,1,2,0v16.874S1223.5,617.14,1223.5,620.016Z" transform="translate(-1193.5 -580.969)"/>
</svg>
