<svg xmlns="http://www.w3.org/2000/svg" width="46" height="53.875"><path data-name="Android 2" d="M14.004 50.869a3 3 0 006 0V45.86c.688.034 1.935.051 1.935.051s1.825.019 4.056-.151l.007 5.109a3 3 0 006 0l-.065-5.78c3.184-.829 6-2.263 6-4.741V21.911a2.013 2.013 0 00-2-2l-25.938-.062a2.07 2.07 0 00-2 2v18.437s.272 3.262 5.97 4.95zm9-49.02a12.24 12.24 0 016.468 1.638c.356.2 2.409-3.648 4.388-3.482.375 3.8-2.214 4.861-1.863 5.151a16.884 16.884 0 015.944 12.795H8.004a16.891 16.891 0 015.52-12.4c.4-.356-2.329-3.644-1.37-5.531 1.7-.193 3.547 3.9 4.032 3.632a13.88 13.88 0 016.818-1.803zm-7 8.062a2 2 0 11-2 2 2 2 0 012-2zm14 0a2 2 0 11-2 2 2 2 0 012-2zm-27 10a3 3 0 013 3v14a3 3 0 01-6 0v-14a3 3 0 013-3zm40 0a3 3 0 013 3v14a3 3 0 01-6 0v-14a3 3 0 013-3z" fill="#616161" fill-rule="evenodd"/></svg>