<svg xmlns="http://www.w3.org/2000/svg" width="60" height="56"><path data-name="Camera 2" d="M44 0h10a6 6 0 016 6v10a6 6 0 01-6 6H44a6 6 0 01-6-6V6a6 6 0 016-6zm4.969 7.875a3.094 3.094 0 11-3.094 3.094 3.095 3.095 0 013.094-3.094zM28.875 30a10.907 10.907 0 11-10.937 10.875A10.885 10.885 0 0128.875 30zm.062 1.625a9.063 9.063 0 11-9.062 9.063 9.062 9.062 0 019.062-9.063zm0 4.313a5 5 0 11-5 5 5 5 0 015.001-5zM12.25 18h23.625c0 6.251 6.125 6 6.125 6l14-.062A4.054 4.054 0 0152 28H31.875c2.25 0 2.162-2.5 2.162-2.5l.088-3.121a2.522 2.522 0 00-2.267-2.4l-7.733-.024a1.893 1.893 0 00-2.175 1.885l.014 4.057A2.235 2.235 0 0024 28H6a4 4 0 01-4-4v-2l8.073.06s2.202-1.875 2.177-4.06zM2 16h6a2 2 0 010 4H2a2 2 0 010-4zm24 6h4a2 2 0 012 2 1.947 1.947 0 01-2 1.938h-4A1.947 1.947 0 0124 24a2 2 0 012-2zm16.125 18.124s.25-6.874-6-10.125H54a2 2 0 012 2v22a2 2 0 01-2 2H4a2 2 0 01-2-2V32a2 2 0 012-2h18s-6.125 1.625-6.125 10.125S21.438 54 28.063 54s14.062-2.937 14.062-13.875z" fill="#616161" fill-rule="evenodd"/></svg>