<svg xmlns="http://www.w3.org/2000/svg" width="54" height="64.062"><path data-name="Stop Watch" d="M29.94 9.941c5.43.5 8.16 2.29 11.97 4.434l2.97-2.969-1.46-1.328 1.89-2.062 5.07 4.187-1.94 1.937-1.19-.937-2.69 3.179A27.061 27.061 0 11-.01 37c0-14.554 12.55-27.051 24.13-27.051v-6h-1.99s-1.88.062-1.88-1.625a1.99 1.99 0 012-2.313h9.69s2.12.126 2.12 2.063a2.063 2.063 0 01-2.12 1.937h-2v5.926zm-2.86 5.977a21.4 21.4 0 0114.98 6.224c-.68.447-2.56 2.184-2.56 2.184l1.44 1.743s2.66-2.13 2.82-1.933a21.026 21.026 0 014.37 11.82c-.85.057-4.22.053-4.22.053l.08 2.02a30.907 30.907 0 014.15-.016 20.864 20.864 0 01-4.27 11.823c-.18.226-3.07-1.921-3.07-1.921l-1.2 1.692s2.74 2.016 2.41 2.352a21.089 21.089 0 01-14.02 6.115 39.924 39.924 0 01-.03-4.094l-1.88-.012s-.1 2.616-.08 4.1a21.206 21.206 0 01-11.96-4.421 22.626 22.626 0 01-1.95-1.72c-.23-.231 2.22-2.41 2.22-2.41l-1.5-1.622s-1.7 1.242-2.63 1.846a20.825 20.825 0 01-4.23-11.784c0-.112 4.01.046 4.01.046l.04-1.992s-2.31.024-4.04.07a23.3 23.3 0 014.31-12.03c.13-.168 2.36 2.182 2.36 2.182l1.57-2.13s-1.85-1.485-2.16-1.863a21.145 21.145 0 0115.04-6.322zM30 39.047a2.986 2.986 0 01-3.09 2.969 2.885 2.885 0 01-2.97-2.969c0-2.938 2.06-3.094 2.06-3.094V19.016a1 1 0 012 0V35.89s2 .281 2 3.157z" fill="#616161" fill-rule="evenodd"/></svg>