<svg xmlns="http://www.w3.org/2000/svg" width="62" height="58.969"><path data-name="Computer/iMac" d="M22 47v5.8c0 2-3.646 4.177-3.646 4.177s-1.208 2.063.584 2H43s1.667-.832.833-1.666-3.843-1.74-3.843-4.4v-5.906zM3 0h56a3 3 0 013 3v40a3 3 0 01-3 3H3a3 3 0 01-3-3V3a3 3 0 013-3zm1 3.953h54v32.063H4.01v-28zM32.405 37a1.451 1.451 0 01-1.417 1.626A1.556 1.556 0 0132.405 37zm-.207 1.7a1.632 1.632 0 011.489.7l-.014.021a1.532 1.532 0 00-.688 1.769 1.5 1.5 0 00.888.988 2.145 2.145 0 01-.236.572 2.179 2.179 0 01-1.26 1.3c-.522.085-.793-.365-1.368-.273a2.542 2.542 0 01-1.3.237 3.084 3.084 0 01-1.217-1.518 5.338 5.338 0 01-.323-1.081 2.079 2.079 0 011.6-2.692 3.3 3.3 0 011.239.308 2.737 2.737 0 00.78-.244z" fill="#616161" fill-rule="evenodd"/></svg>